Chris Brown - Gimme That (Remix) ft. Lil Wayne (UJ.rip)
=============================================================


General
Complete name                  : Chris Brown - Gimme That (Remix) ft. Lil Wayne (UJ.rip).avi
Format                         : AVI
Format/Info                    : Audio Video Interleave
File size                      : 101 MiB
Duration                       : 4mn 55s
Overall bit rate               : 2 870 Kbps
Writing application            : Lavf52.39.1

Video
ID                             : 0
Format                         : xvid
Codec ID                       : xvid
Duration                       : 4mn 54s
Bit rate                       : 2 798 Kbps
Width                          : 854 pixels
Height                         : 480 pixels
Display aspect ratio           : 16:9
Frame rate                     : 29.970 fps
Bits/(Pixel*Frame)             : 0.228
Stream size                    : 98.2 MiB (97%)

Audio
ID                             : 1
Format                         : MPEG Audio
Format version                 : Version 1
Format profile                 : Layer 3
Mode                           : Joint stereo
Mode extension                 : MS Stereo
Codec ID                       : 55
Codec ID/Hint                  : MP3
Duration                       : 4mn 55s
Bit rate mode                  : Constant
Bit rate                       : 64.0 Kbps
Channel(s)                     : 2 channels
Sampling rate                  : 44.1 KHz
Compression mode               : Lossy
Stream size                    : 2.25 MiB (2%)
Alignment                      : Aligned on interleaves
Interleave, duration           : 26 ms (0.78 video frame)

=====================
THUMBNAILS-
=================
 
http://img195.imageshack.us/img195/4620/chrisbrowngimmethatremi.jpg


=============

CHECK MY PROFILE AND FEEL FREE TO DOWNLOAD MORE WINDOWS SOFTWARE, THEMES, SONGS, MOVIES, LATEST MAGAZINES, EBOOKS AND MUCH MORE STUFF FROM THIS ACCOUNT

------------------------------------------------------------------------------- 
http://thepiratebay.se/user/clueman7
-------------------------------------------------------------------------------



=========================================
DOWNLOAD AND SEED FOR YOUR FRIENDS   ||||
=========================================

=======================
